<?xml version="1.0" encoding="us-ascii" standalone="no"?><svg xmlns="http://www.w3.org/2000/svg" xmlns:xlink="http://www.w3.org/1999/xlink" contentStyleType="text/css" height="622px" preserveAspectRatio="none" style="width:625px;height:622px;background:#FFFFFF;" version="1.1" viewBox="0 0 625 622" width="625px" zoomAndPan="magnify"><defs/><g><text fill="#000000" font-family="Inter" font-size="14" font-weight="bold" lengthAdjust="spacing" textLength="259" x="176.4599" y="24.5332">Deployment Diagram - Translator App</text><!--cluster Device--><g id="cluster_Device"><polygon fill="#F8F8F8" points="91.4198,54.6094,101.4198,44.6094,393.4198,44.6094,393.4198,174.6094,383.4198,184.6094,91.4198,184.6094,91.4198,54.6094" style="stroke:#000000;stroke-width:1.0;"/><line style="stroke:#000000;stroke-width:1.0;" x1="383.4198" x2="393.4198" y1="54.6094" y2="44.6094"/><line style="stroke:#000000;stroke-width:1.0;" x1="91.4198" x2="383.4198" y1="54.6094" y2="54.6094"/><line style="stroke:#000000;stroke-width:1.0;" x1="383.4198" x2="383.4198" y1="54.6094" y2="184.6094"/><text fill="#000000" font-family="Inter" font-size="14" font-style="italic" lengthAdjust="spacing" textLength="92" x="192.4198" y="72.1426">&#171;Android/iOS&#187;</text><text fill="#000000" font-family="Inter" font-size="14" font-weight="bold" lengthAdjust="spacing" textLength="138" x="169.4198" y="89.752">User Mobile Device</text></g><!--cluster Internet--><g id="cluster_Internet"><path d="M44.3503,260.3973 C56.3894,242.6721 71.1879,243.1373 80.7805,262.7823 C87.6179,242.8187 99.8372,240.7969 113.9529,255.8966 C126.6472,238.2339 143.7582,239.4461 151.3031,260.8231 C162.1838,242.7103 173.8287,239.3817 187.7875,257.7441 C197.655,241.8518 210.7967,238.1073 223.0227,255.2267 C233.3602,236.9111 249.8388,233.9304 262.9349,252.2188 C274.3431,235.4657 285.0595,239.6547 295.6012,253.1545 C305.7553,235.1334 324.2996,233.7381 332.9707,254.5804 C344.625,236.5234 357.986,239.338 367.7854,256.4182 C378.973,240.4167 390.1309,237.5976 402.7855,254.8753 C415.896,238.4862 432.6971,238.7608 440.47,260.1935 C449.4058,239.8852 467.6236,241.3825 478.418,258.2987 C490.0929,245.6457 501.1691,243.2183 511.0365,260.2826 C524.54,240.0902 545.1906,243.8364 553.4198,265.6094 C555.8728,263.4757 559.1764,263.7581 559.9498,267.4819 C577.8812,280.9435 576.3317,296.2886 558.6851,308.6574 C577.3786,316.3007 582.5976,334.2182 564.3787,347.3002 C581.6855,357.2777 582.1542,375.1268 565.7174,386.2637 C584.5996,396.7283 588.1537,414.3631 566.8281,425.9528 C582.0728,440.3361 578.7175,452.2749 561.1932,461.4574 C582.7186,471.5709 580.2899,489.2012 564.4385,502.2857 C577.8282,514.9989 576.1209,531.9941 558.1403,539.381 C570.8911,558.2513 568.5422,571.2747 546.4198,580.1094 C547.8868,580.1602 548.0877,581.3969 547.4196,582.3856 C538.3223,599.1956 527.7891,599.2157 515.4902,585.7635 C503.4792,603.8861 492.1655,602.6455 479.7365,586.1959 C471.7717,607.2547 452.4963,606.7957 440.445,590.4934 C424.9461,610.5127 413.0587,609.1282 401.606,586.7839 C394.6175,599.3109 380.0346,600.5193 371.8751,588.1841 C364.6534,610.2914 345.597,612.5275 332.6871,593.6188 C322.3283,609.5023 310.1027,615.3667 296.5668,596.9661 C286.1892,611.3757 269.1938,609.9133 261.4802,593.8943 C248.4968,609.158 234.834,606.9449 225.9944,589.4109 C217.2763,606.1125 201.1145,606.4501 189.6516,592.6851 C178.3625,610.8936 163.4331,606.5186 153.8876,590.8446 C140.5876,610.2781 126.4798,611.0686 114.8216,589.2883 C100.5385,605.3203 87.2085,601.4037 79.3048,582.755 C60.3612,600.6098 42.8587,596.5939 32.4198,573.1094 C36.3549,572.7988 38.1678,574.6667 37.0172,578.6081 C18.7992,567.2288 18.6383,555.2034 32.6546,540.1659 C10.5828,529.6998 9.8335,510.3228 28.9437,496.3676 C10.8144,488.1222 9.2893,473.3648 26.859,462.896 C6,451.7662 9.0797,432.2043 26.3581,420.6226 C7.8895,409.7343 8.8423,394.9496 26.1996,383.9067 C8.0627,371.0457 8.1527,356.5234 28.9343,346.5082 C10.1379,331.0131 12.726,316.9837 33.5847,306.0462 C10.0028,286.6776 16.1683,272.2172 39.4198,258.6094 C41.9373,256.5267 43.7613,257.1616 44.3503,260.3973 " fill="none" style="stroke:#181818;stroke-width:1.0;"/><text fill="#000000" font-family="Inter" font-size="14" font-weight="bold" lengthAdjust="spacing" textLength="56" x="264.9198" y="278.1426">Internet</text></g><!--cluster SupabaseNode--><g id="cluster_SupabaseNode"><polygon fill="#F8F8F8" points="339.4198,313.1094,349.4198,303.1094,529.4198,303.1094,529.4198,413.1094,519.4198,423.1094,339.4198,423.1094,339.4198,313.1094" style="stroke:#000000;stroke-width:1.0;"/><line style="stroke:#000000;stroke-width:1.0;" x1="519.4198" x2="529.4198" y1="313.1094" y2="303.1094"/><line style="stroke:#000000;stroke-width:1.0;" x1="339.4198" x2="519.4198" y1="313.1094" y2="313.1094"/><line style="stroke:#000000;stroke-width:1.0;" x1="519.4198" x2="519.4198" y1="313.1094" y2="423.1094"/><text fill="#000000" font-family="Inter" font-size="14" font-weight="bold" lengthAdjust="spacing" textLength="114" x="373.4198" y="330.6426">Supabase Cloud</text></g><!--cluster RapidAPI--><g id="cluster_RapidAPI"><polygon fill="#F8F8F8" points="56.4198,312.6094,66.4198,302.6094,299.4198,302.6094,299.4198,546.1094,289.4198,556.1094,56.4198,556.1094,56.4198,312.6094" style="stroke:#000000;stroke-width:1.0;"/><line style="stroke:#000000;stroke-width:1.0;" x1="289.4198" x2="299.4198" y1="312.6094" y2="302.6094"/><line style="stroke:#000000;stroke-width:1.0;" x1="56.4198" x2="289.4198" y1="312.6094" y2="312.6094"/><line style="stroke:#000000;stroke-width:1.0;" x1="289.4198" x2="289.4198" y1="312.6094" y2="556.1094"/><text fill="#000000" font-family="Inter" font-size="14" font-weight="bold" lengthAdjust="spacing" textLength="125" x="111.4198" y="330.1426">RapidAPI Gateway</text></g><!--entity App--><g id="elem_App"><rect fill="#F1F1F1" height="65.2188" rx="2.5" ry="2.5" style="stroke:#181818;stroke-width:0.5;" width="270" x="107.4198" y="103.6094"/><rect fill="#F1F1F1" height="10" style="stroke:#181818;stroke-width:0.5;" width="15" x="357.4198" y="108.6094"/><rect fill="#F1F1F1" height="2" style="stroke:#181818;stroke-width:0.5;" width="4" x="355.4198" y="110.6094"/><rect fill="#F1F1F1" height="2" style="stroke:#181818;stroke-width:0.5;" width="4" x="355.4198" y="114.6094"/><text fill="#000000" font-family="Inter" font-size="14" font-style="italic" lengthAdjust="spacing" textLength="139" x="167.9198" y="138.1426">&#171;React Native / Expo&#187;</text><text fill="#000000" font-family="Inter" font-size="14" lengthAdjust="spacing" textLength="230" x="122.4198" y="155.752">RTTC - Real Time Translation Client</text></g><!--entity DB--><g id="elem_DB"><path d="M385.4198,362.1094 C385.4198,352.1094 445.4198,352.1094 445.4198,352.1094 C445.4198,352.1094 505.4198,352.1094 505.4198,362.1094 L505.4198,388.7188 C505.4198,398.7188 445.4198,398.7188 445.4198,398.7188 C445.4198,398.7188 385.4198,398.7188 385.4198,388.7188 L385.4198,362.1094 " fill="#F1F1F1" style="stroke:#181818;stroke-width:0.5;"/><path d="M385.4198,362.1094 C385.4198,372.1094 445.4198,372.1094 445.4198,372.1094 C445.4198,372.1094 505.4198,372.1094 505.4198,362.1094 " fill="none" style="stroke:#181818;stroke-width:0.5;"/><text fill="#000000" font-family="Inter" font-size="14" lengthAdjust="spacing" textLength="100" x="395.4198" y="390.6426">PostgreSQL DB</text></g><!--entity TransAPI--><g id="elem_TransAPI"><rect fill="#F1F1F1" height="47.6094" rx="2.5" ry="2.5" style="stroke:#181818;stroke-width:0.5;" width="175" x="99.9198" y="351.6094"/><rect fill="#F1F1F1" height="10" style="stroke:#181818;stroke-width:0.5;" width="15" x="254.9198" y="356.6094"/><rect fill="#F1F1F1" height="2" style="stroke:#181818;stroke-width:0.5;" width="4" x="252.9198" y="358.6094"/><rect fill="#F1F1F1" height="2" style="stroke:#181818;stroke-width:0.5;" width="4" x="252.9198" y="362.6094"/><text fill="#000000" font-family="Inter" font-size="14" lengthAdjust="spacing" textLength="135" x="114.9198" y="386.1426">Google Translate API</text></g><!--entity OCRService--><g id="elem_OCRService"><rect fill="#F1F1F1" height="47.6094" rx="2.5" ry="2.5" style="stroke:#181818;stroke-width:0.5;" width="96" x="139.4198" y="484.1094"/><rect fill="#F1F1F1" height="10" style="stroke:#181818;stroke-width:0.5;" width="15" x="215.4198" y="489.1094"/><rect fill="#F1F1F1" height="2" style="stroke:#181818;stroke-width:0.5;" width="4" x="213.4198" y="491.1094"/><rect fill="#F1F1F1" height="2" style="stroke:#181818;stroke-width:0.5;" width="4" x="213.4198" y="495.1094"/><text fill="#000000" font-family="Inter" font-size="14" lengthAdjust="spacing" textLength="56" x="154.4198" y="518.6426">OCR API</text></g><!--entity Auth--><g id="elem_Auth"><ellipse cx="604.4198" cy="508.1094" fill="#F1F1F1" rx="8" ry="8" style="stroke:#181818;stroke-width:0.5;"/><text fill="#000000" font-family="Inter" font-size="14" lengthAdjust="spacing" textLength="29" x="589.9198" y="539.6426">Auth</text></g><!--link App to SupabaseNode--><g id="link_App_SupabaseNode"><path d="M257.4898,168.8394 C267.3298,189.7194 280.3498,217.6894 291.4198,242.6094 C304.1548,271.2744 317.9198,303.6994 328.616,329.2394 C331.2901,335.6244 333.7723,341.5791 335.9988,346.9371 C337.112,349.6161 338.1612,352.146 339.1385,354.5059 C339.1996,354.6534 336.9651,349.2566 337.0257,349.4028 " fill="none" id="App-to-SupabaseNode" style="stroke:#333333;stroke-width:1.0;"/><polygon fill="#333333" points="339.3209,354.9464,339.5738,345.1008,337.4082,350.3267,332.1823,348.1611,339.3209,354.9464" style="stroke:#333333;stroke-width:1.0;"/><text fill="#000000" font-family="Inter" font-size="13" lengthAdjust="spacing" textLength="87" x="288.4198" y="215.1045">HTTPS / REST</text><text fill="#000000" font-family="Inter" font-size="13" lengthAdjust="spacing" textLength="79" x="292.4198" y="231.4561">(Data &amp; Auth)</text></g><!--link App to RapidAPI--><g id="link_App_RapidAPI"><path d="M168.9698,168.7894 C137.6398,186.0694 103.6998,210.5494 83.4198,242.6094 C75.6223,254.9369 70.5116,269.1912 67.2377,283.6775 C66.4193,287.2991 65.7156,290.9351 65.1134,294.5592 C64.8123,296.3712 64.5366,298.1802 64.2846,299.983 C64.2216,300.4336 64.1601,300.8839 64.1001,301.3338 C64.07,301.5587 64.8163,295.8339 64.787,296.0586 " fill="none" id="App-to-RapidAPI" style="stroke:#333333;stroke-width:1.0;"/><polygon fill="#333333" points="64.0111,302.0082,69.1414,293.6011,64.6577,297.0502,61.2086,292.5665,64.0111,302.0082" style="stroke:#333333;stroke-width:1.0;"/><text fill="#000000" font-family="Inter" font-size="13" lengthAdjust="spacing" textLength="87" x="121.4198" y="215.1045">HTTPS / REST</text><text fill="#000000" font-family="Inter" font-size="13" lengthAdjust="spacing" textLength="62" x="133.9198" y="231.4561">(API Calls)</text></g><!--link DB to Auth--><!--link TransAPI to OCRService--><!--SRC=[RP1HRzGm3CVVyoci8W5xg8R42q9JfRjs6vFWThJbYV7WDUOMBHTNQMvZGdptEMdlhWnSgKhid__nty44Ir1HR_bfIov0PN3ZSGivj1xTO36mXqNVApNS6zTZh6dwYJiRBjY55Mu9iYiNo6Spmh6c9NRt6yyxfqks8lBguaFyNbBiDVc9U9TYHg3t_3WLtwTGAdP1zcqW3r_urgJn7qn76U0m7U7iRE6qPwDFpNLJ5F1RWKJ7svvTT9dLRLkAnvhGGcl4mzwjOGUbDG8bFN4kOe9r0LPIVI0uXVDVFHU5-gDKPtcd9_-Ef6LyAFt6EPjTZxSua8WAcZJtgLK4neOO6iD8PciUmiPJy_KpLClHrZ9Xyk9HkSRUwCNw2Yunq2C-9V2GFEhEN5yoR-pHAu6GgIrbvFA_fkkoFd1oRiZ75K_po4Hle6Jdg8kh6rHSM9uNVvly29_QTjt8wkhpfhrnRoln2gzXiGjt9uUMm-p_u35PehN3YLBL4lBlTqPhSZ_ofA3sqyyBiqcV0G00]--></g></svg>